<!-- Singapore / Singapore Dollar (SGD) — file: sgd.svg -->
<svg width="24" height="24" viewBox="0 0 24 24" fill="none" xmlns="http://www.w3.org/2000/svg">
  <rect width="24" height="24" rx="5" fill="#EF3340"/>
  <rect x="1" y="1" width="22" height="22" rx="5" stroke="#00B7FF" stroke-width="1.4"/>

  <!-- White crescent -->
  <path fill="#FFFFFF" d="M9.5 7.5c0 2-1.5 3.5-3.5 3.5S2.5 9.5 2.5 7.5 4 4 6 4s3.5 1.5 3.5 3.5z"/>

  <!-- Five stars -->
  <path fill="#FFFFFF" d="M6 4.8l.4 1.2h1.2l-.98.7.38 1.2L6 6.8l-.98.7.38-1.2-.98-.7h1.2L6 4.8z"/>
  <path fill="#FFFFFF" d="M8 5.5l.35 1h1.05L8.7 7l.35 1L8 7.5l-.9.5.3-1-.9-.7h1.1L8 5.5z"/>
  <path fill="#FFFFFF" d="M8.5 7.7l.35 1h1.05l-.9.7.35 1-.85-.5-.9.5.3-1-.9-.7h1.1l.3-1z"/>
  <path fill="#FFFFFF" d="M7.7 9.4l.35 1h1.05l-.9.7.35 1-.85-.5-.9.5.3-1-.9-.7h1.1l.3-1z"/>
  <path fill="#FFFFFF" d="M5.8 9.4l.35 1h1.05l-.9.7.35 1-.85-.5-.9.5.3-1-.9-.7h1.1l.3-1z"/>
</svg>
